<svg xmlns="http://www.w3.org/2000/svg" width="207.654" height="50.793" viewBox="0 0 207.654 50.793">
    <defs>
        <style>
            .cls-2{fill:#ffffff}
        </style>
    </defs>
    <g id="Logo_outlined" class="cls-2" transform="translate(-5.285 -6.2)">
        <g id="Group_11" transform="translate(65.94 27.883)" style="isolation:isolate">
            <path id="Path_8672" d="M206.763 101.394h-10.984a3.989 3.989 0 0 0 4.315 4.156 4.956 4.956 0 0 0 4.033-1.807l2.222 2a7.991 7.991 0 0 1-6.284 2.731c-5.183 0-7.525-3.744-7.525-8.03 0-4.191 2.316-8.192 7.269-8.192 4.826 0 7.048 3.618 7.048 7.716a12.378 12.378 0 0 1-.094 1.426zm-2.986-2.381v-.13a3.719 3.719 0 0 0-4-3.936c-2.633 0-3.871 2.063-4.062 4.065z" transform="translate(-192.54 -86.06)"/>
            <path id="Path_8673" d="M258.342 108.491c0 3.239-2.889 4.826-6.951 4.826-4.35 0-7.3-1.84-7.3-4.888a4.9 4.9 0 0 1 .094-.92l2.731-1.461a3.455 3.455 0 0 1-2.413-3.365 3.777 3.777 0 0 1 1.493-3.08 5.15 5.15 0 0 1-1.27-3.524c0-3.395 2.825-5.681 6.284-5.681a6.763 6.763 0 0 1 3.741 1.079l2.284-1.966 1.717 2.031-2.222 1.84a5.42 5.42 0 0 1 .729 2.825c0 3.3-2.507 5.461-6.154 5.461a7.5 7.5 0 0 1-3.365-.729 1.62 1.62 0 0 0-.6 1.237c0 1.364 1.62 1.681 3.809 1.969 4.125.537 7.393 1.013 7.393 4.346zm-3.207.509c0-1.681-2.475-1.84-4.729-2.157-.476-.065-.952-.126-1.428-.224l-1.62 1.555a1.538 1.538 0 0 0-.032.382c0 1.493 1.558 2.381 4.191 2.381 2.483 0 3.619-.761 3.619-1.937zm-7.188-12.921a2.874 2.874 0 0 0 3.08 3.048 3.016 3.016 0 0 0 0-6.031 2.893 2.893 0 0 0-3.079 2.983z" transform="translate(-227.392 -84.208)"/>
            <path id="Path_8674" d="M320.992 98.5v9.682h-3.239v-8.7c0-2.128-.509-4.415-3.016-4.415-3.11 0-3.333 3.272-3.333 6.572v6.54h-3.239v-8.921c0-1.714-.379-4.191-2.915-4.191-3.178 0-3.43 3.272-3.43 6.572v6.54h-3.24V92.527h3.081V95.1a4.821 4.821 0 0 1 9.018.57 5.172 5.172 0 0 1 5.014-3.427c3.707-.001 5.299 2.95 5.299 6.257z" transform="translate(-264.232 -86.052)"/>
            <path id="Path_8675" d="M391.365 98.333v9.841h-2.954l-.223-2.591a5.561 5.561 0 0 1-4.985 2.876c-3.366 0-5.652-2.031-5.652-5.047a4.007 4.007 0 0 1 2.031-3.715 8.69 8.69 0 0 1 4.13-.858h4.447v-.505c0-2.063-1.241-3.272-3.621-3.272a5.385 5.385 0 0 0-4.347 2.1l-2.352-1.943a8.879 8.879 0 0 1 6.922-2.983c4.191 0 6.604 2.255 6.604 6.097zm-3.207 3.3v-.408h-3.984a4.859 4.859 0 0 0-2.478.538 1.9 1.9 0 0 0-.92 1.684c0 1.4 1.079 2.413 2.954 2.413a4.255 4.255 0 0 0 4.428-4.227z" transform="translate(-317.622 -86.046)"/>
            <path id="Path_8676" d="M443.2 93.043l-1.526 2.915a4.259 4.259 0 0 0-1.966-.509c-1.943 0-3.748 1.364-3.748 4.729v8h-3.21V92.535h3.239v3.015a4.83 4.83 0 0 1 4.477-3.3 4.943 4.943 0 0 1 2.734.793z" transform="translate(-354.942 -86.06)"/>
            <path id="Path_8677" d="M473.31 95.267V73.14h3.2v13.523l6.511-7.048h4.315l-5.649 5.811 6.42 9.841h-3.848l-4.92-7.651-2.828 3.08v4.57z" transform="translate(-382.364 -73.14)"/>
            <path id="Path_8678" d="M535.843 101.394h-10.984a3.991 3.991 0 0 0 4.318 4.156 4.953 4.953 0 0 0 4.029-1.807l2.222 2a7.991 7.991 0 0 1-6.284 2.731c-5.183 0-7.525-3.744-7.525-8.03 0-4.191 2.316-8.192 7.269-8.192 4.826 0 7.048 3.618 7.048 7.716a12.365 12.365 0 0 1-.093 1.426zm-2.986-2.381v-.13a3.719 3.719 0 0 0-4-3.936c-2.633 0-3.887 2.063-4.062 4.065z" transform="translate(-415.026 -86.06)"/>
            <path id="Path_8679" d="M580.859 82.84h-3.887v8.571c0 1.082.223 2.193 1.943 2.193a6.657 6.657 0 0 0 1.944-.35V95.8a8.916 8.916 0 0 1-2.7.444c-2.413 0-4.382-1.2-4.382-4.535V82.84h-2.567v-2.549h2.569v-3.929l3.207-2.222v6.154h3.887z" transform="translate(-448.553 -73.816)"/>
            <path id="Path_8680" d="M607.07 105.106l2.222-1.872a4.943 4.943 0 0 0 4.415 2.637c1.807 0 2.915-.858 2.915-2.1 0-1.526-1.681-1.943-3.524-2.446-2.442-.648-5.364-1.428-5.364-4.635 0-3.11 2.857-4.444 5.714-4.444a6.362 6.362 0 0 1 5.685 2.951l-2.063 1.62a4.214 4.214 0 0 0-3.683-2.157c-1.526 0-2.637.648-2.637 1.746 0 1.27 1.493 1.62 3.239 2.063 2.572.6 5.808 1.4 5.808 4.953 0 3.048-2.442 5.047-6.125 5.047a7.633 7.633 0 0 1-6.602-3.363z" transform="translate(-472.797 -86.06)"/>
        </g>
        <g id="Group_46" transform="translate(5.285 6.2)">
            <path id="Path_8" d="M112.253 70.149c.943-1.38 11.6-18.081-2.468-32.839 0 0-1.328 18.334-11.185 25.265z" class="cls-2" transform="translate(-68.374 -27.233)"/>
            <path id="Path_9" d="M15.814 6.2s-2.2 19.066 8.406 29.654a74.764 74.764 0 0 0 23.617 14.9l-28.025 3.11s-7.674-4.062-8.7-6.954l4.025 1.19-4.622-2.773s-5.183-4.513-5.157-13.713c0 0 3.359 4.464 6.436 5.05 0 0-4.9-3.365-5.7-6.388 0 0-2.384-6.394 1.02-11.557 0 0-.168 6.281 1.419 7.81.006-.016-3.324-14.67 7.281-20.329z" class="cls-2" transform="translate(-5.285 -6.2)"/>
        </g>
    </g>
</svg>
